<?xml version="1.0" encoding="UTF-8"?>
<svg width="128px" height="28px" viewBox="0 0 128 28" version="1.1" xmlns="http://www.w3.org/2000/svg" xmlns:xlink="http://www.w3.org/1999/xlink">
    <!-- Generator: Sketch 40.1 (33804) - http://www.bohemiancoding.com/sketch -->
    <title>Group Copy</title>
    <desc>Created with Sketch.</desc>
    <defs>
        <polygon id="path-1" points="20.4831623 0 0.000259834544 0 0.000259834544 22.85267 20.4831623 22.85267 20.4831623 0"></polygon>
        <polygon id="path-3" points="12.4663873 3.55271368e-15 0.264887234 3.55271368e-15 0.264887234 22.9465 12.4663873 22.9465 12.4663873 0"></polygon>
    </defs>
    <g id="Boostrap3-Grid" stroke="none" stroke-width="1" fill="none" fill-rule="evenodd">
        <g id="Group-Copy" transform="translate(0.000000, 0.000000)">
            <g id="Group-3" transform="translate(41.000000, 9.000000)" fill="#FFFFFF">
                <path d="M8.6455,2.4917 C9.1005,2.1257 9.5215,1.7547 9.9745,1.4287 C11.3515,0.4387 12.8545,-0.1213 14.5835,0.1657 C15.7435,0.3577 16.5735,1.0097 17.1445,2.0187 C17.2315,2.1727 17.3155,2.3297 17.3935,2.4717 C18.1685,1.9547 18.8835,1.4147 19.6575,0.9767 C20.9285,0.2587 22.2955,-0.1133 23.7675,0.1907 C25.0705,0.4597 25.7695,1.4367 25.6755,2.7747 C25.5985,3.8737 25.1515,4.8527 24.7165,5.8377 C24.2195,6.9597 23.6905,8.0697 23.2405,9.2107 C22.7975,10.3327 22.5715,11.5087 22.6525,12.7287 C22.7535,14.2357 23.8915,15.4147 25.4005,15.6107 C26.2185,15.7177 26.9965,15.6327 27.7765,15.3717 C27.9975,15.2987 28.2765,15.3997 28.5285,15.4217 C28.4965,15.6877 28.5495,16.0097 28.4185,16.2117 C27.7455,17.2427 26.7305,17.8567 25.6215,18.3097 C23.9335,18.9997 22.1835,19.2197 20.4055,18.7527 C17.5035,17.9927 16.0035,15.5487 16.4915,12.5267 C16.8295,10.4327 17.7605,8.5867 18.7815,6.7697 C19.1005,6.2017 19.4005,5.6217 19.6955,5.0407 C19.7905,4.8527 19.8615,4.6467 19.9045,4.4417 C20.0375,3.8107 19.7345,3.5037 19.1035,3.6227 C18.2525,3.7827 17.6175,4.2987 17.0715,4.9247 C16.0615,6.0847 15.4125,7.4597 14.8215,8.8597 C14.2415,10.2317 13.7305,11.6277 13.6795,13.1437 C13.6645,13.6077 13.3855,13.8817 12.9495,13.8307 C12.0055,13.7207 11.0365,13.6477 10.1395,13.3627 C8.9625,12.9897 8.6405,12.3007 9.0395,11.0317 C9.5485,9.4157 10.1925,7.8427 10.7745,6.2497 C10.9865,5.6667 11.2155,5.0867 11.3845,4.4907 C11.5645,3.8557 11.1705,3.4347 10.5455,3.6307 C10.1605,3.7517 9.7325,3.9817 9.4995,4.2937 C8.8045,5.2277 8.1455,6.1967 7.5645,7.2057 C6.7245,8.6647 5.9955,10.1857 5.5705,11.8287 C5.4535,12.2807 5.4115,12.7537 5.3535,13.2197 C5.3075,13.5947 5.1115,13.8187 4.7385,13.8227 C3.5155,13.8377 2.3035,13.7337 1.2035,13.1417 C0.4615,12.7417 0.2075,12.2127 0.4625,11.3357 C0.8735,9.9127 1.3715,8.5127 1.8645,7.1147 C2.4335,5.5017 3.0535,3.9057 3.6145,2.2897 C3.7615,1.8657 3.7925,1.3977 3.8425,0.9457 C3.9085,0.3517 4.0965,0.1337 4.6895,0.0987 C6.2305,0.0067 7.9445,0.4737 8.5485,2.3797 C8.5565,2.4057 8.5865,2.4257 8.6455,2.4917" id="Fill-1"></path>
            </g>
            <path d="M116.2806,10.8673 C116.4246,10.7973 116.5726,10.7333 116.7136,10.6573 C118.0556,9.9383 119.4236,9.2913 120.9636,9.1213 C121.7936,9.0303 122.6076,9.0803 123.3486,9.5113 C124.3856,10.1133 124.7806,11.3813 124.2486,12.8193 C123.7346,14.2093 123.0926,15.5523 122.4956,16.9113 C121.8996,18.2663 121.4496,19.6493 121.3536,21.1463 C121.2406,22.9253 122.4636,24.4183 124.2366,24.6203 C125.0116,24.7093 125.7456,24.6263 126.4736,24.3713 C126.7386,24.2783 127.0966,24.1023 127.2396,24.4413 C127.3336,24.6643 127.2636,25.0503 127.1196,25.2643 C126.4526,26.2553 125.4676,26.8603 124.3866,27.3023 C122.6836,27.9983 120.9206,28.2193 119.1266,27.7523 C116.2246,26.9973 114.7356,24.5583 115.2286,21.4733 C115.5086,19.7283 116.1796,18.1273 116.9826,16.5713 C117.4266,15.7093 117.8866,14.8543 118.3166,13.9843 C118.4556,13.7023 118.5546,13.3903 118.6106,13.0813 C118.6996,12.5853 118.4106,12.2853 117.9066,12.3433 C116.5706,12.4973 115.5896,13.2573 114.8856,14.3283 C113.4786,16.4673 112.6196,18.8453 112.0266,21.3233 C111.9566,21.6163 111.9626,21.9273 111.9336,22.2293 C111.8996,22.5803 111.7156,22.8083 111.3576,22.8143 C110.0576,22.8363 108.7776,22.7343 107.6276,22.0373 C107.0856,21.7083 106.8386,21.2023 107.0356,20.5973 C107.5656,18.9713 108.0766,17.3343 108.7076,15.7463 C110.1276,12.1683 111.6336,8.6253 113.0646,5.0513 C113.6386,3.6193 114.2016,2.1743 114.3796,0.6173 C114.4246,0.2233 114.7496,-0.0057 115.3646,0.0133 C116.8936,0.0613 118.1006,0.7233 118.9266,2.0293 C119.2036,2.4683 119.2386,2.9573 119.0646,3.4293 C118.4996,4.9643 117.9196,6.4933 117.3236,8.0153 C117.0246,8.7763 116.6756,9.5183 116.3536,10.2713 C116.2856,10.4323 116.2396,10.6033 116.1836,10.7703 C116.2156,10.8023 116.2486,10.8353 116.2806,10.8673" id="Fill-4" fill="#FFFFFF"></path>
            <g id="Group-8">
                <mask id="mask-2" fill="white">
                    <use xlink:href="#path-1"></use>
                </mask>
                <g id="Clip-7"></g>
                <path d="M5.3849,18.5085 C5.3729,19.2415 5.8029,19.5735 6.3979,19.3285 C6.7409,19.1875 7.0839,18.9855 7.3529,18.7315 C9.0799,17.0955 10.2649,15.1005 11.1359,12.9045 C11.1799,12.7935 11.2099,12.6725 11.2239,12.5535 C11.2789,12.0715 11.0469,11.8115 10.5719,11.8825 C10.2189,11.9345 9.8509,12.0175 9.5339,12.1755 C8.2669,12.8105 7.4209,13.8845 6.6859,15.0495 C6.0009,16.1365 5.4899,17.2965 5.3849,18.5085 M0.0009,19.5345 C0.0899,16.9605 1.0309,14.9385 2.5049,13.1495 C3.9329,11.4175 5.6659,10.0915 7.8349,9.4115 C9.3029,8.9515 10.7609,8.9195 12.1769,9.6205 C12.3849,9.7245 12.5569,9.7895 12.6789,9.4885 C13.7319,6.8915 14.8859,4.3315 15.6039,1.6105 C15.6619,1.3905 15.6969,1.1645 15.7319,0.9405 C15.8449,0.2175 16.1309,-0.0605 16.8379,0.0105 C18.3349,0.1605 19.5039,0.8965 20.2949,2.1655 C20.4659,2.4395 20.5379,2.8985 20.4369,3.1985 C19.8729,4.8765 19.2929,6.5535 18.6219,8.1915 C17.3519,11.2895 15.9899,14.3505 14.7219,17.4505 C14.2449,18.6175 13.9789,19.8585 14.1159,21.1435 C14.1479,21.4435 14.2309,21.7375 14.2929,22.0335 C14.4179,22.6205 14.1979,22.8635 13.6079,22.8375 C12.0299,22.7685 10.6929,22.1675 9.6149,21.0205 C9.3279,20.7145 9.1019,20.7265 8.7519,20.9105 C7.7209,21.4505 6.6939,22.0155 5.6139,22.4425 C4.6379,22.8285 3.5779,22.9695 2.5269,22.7465 C0.9299,22.4085 -0.0281,21.0765 0.0009,19.5345" id="Fill-6" fill="#FFFFFF" mask="url(#mask-2)"></path>
            </g>
            <path d="M72.2358,18.1042 C72.2078,19.0582 72.6788,19.4062 73.3708,19.0452 C73.8688,18.7852 74.3418,18.4172 74.7218,18.0012 C76.0228,16.5792 76.9538,14.9132 77.7398,13.1642 C77.8638,12.8892 77.9778,12.6042 78.0498,12.3122 C78.1648,11.8382 77.9558,11.5702 77.4868,11.6612 C77.0358,11.7492 76.5728,11.8972 76.1778,12.1262 C75.0918,12.7562 74.3048,13.7052 73.6268,14.7402 C72.9158,15.8242 72.3538,16.9752 72.2358,18.1042 M66.6828,19.3902 C66.7808,16.8792 67.7668,14.8332 69.3428,13.0622 C71.0428,11.1512 73.1428,9.8742 75.6588,9.3342 C77.7848,8.8772 79.8588,8.9902 81.7998,10.0582 C82.2978,10.3322 82.7638,10.6962 83.1698,11.0942 C83.6698,11.5862 83.6588,11.8502 83.3378,12.4792 C82.7438,13.6382 82.1038,14.7762 81.5788,15.9662 C80.9508,17.3912 80.6068,18.9042 80.6248,20.4722 C80.6308,20.9972 80.7258,21.5232 80.8168,22.0432 C80.9218,22.6382 80.7318,22.8612 80.1318,22.8362 C78.5578,22.7692 77.2088,22.1902 76.1308,21.0432 C75.8028,20.6932 75.5528,20.7222 75.2008,20.9682 C73.9848,21.8202 72.6828,22.4942 71.1938,22.7172 C70.2928,22.8522 69.3768,22.9522 68.5048,22.5812 C67.4418,22.1292 66.9258,21.2582 66.7528,20.1552 C66.7088,19.8712 66.6998,19.5812 66.6828,19.3902" id="Fill-9" fill="#FFFFFF"></path>
            <path d="M22.8292,15.3988 C22.6892,15.9658 22.5322,16.5028 22.4262,17.0488 C22.2822,17.7998 22.2412,18.5588 22.5052,19.2968 C22.7062,19.8568 23.0852,20.1428 23.6582,20.0178 C24.0822,19.9258 24.5562,19.7318 24.8472,19.4288 C25.4302,18.8218 25.9752,18.1518 26.4062,17.4308 C27.2452,16.0278 27.8312,14.5148 27.9552,12.8598 C28.0412,11.7018 27.3932,11.2158 26.3042,11.6138 C26.1782,11.6598 26.0542,11.7198 25.9372,11.7878 C25.0622,12.2988 24.2662,13.5258 24.8542,15.0788 C24.9422,15.3108 24.9422,15.7358 24.8012,15.8528 C24.6192,16.0038 24.2332,16.0148 23.9732,15.9438 C23.6012,15.8428 23.2642,15.6148 22.8292,15.3988 M22.6192,22.7898 C21.3252,22.7828 20.0802,22.5808 18.9682,21.8588 C17.6822,21.0248 17.1742,19.8098 17.2722,18.3158 C17.4242,16.0168 18.6682,14.3588 20.4352,13.0268 C20.6862,12.8368 20.8292,12.6698 20.8002,12.3298 C20.7572,11.8168 21.0052,11.3948 21.3462,11.0238 C21.9492,10.3678 22.7172,9.9688 23.5382,9.6828 C25.7272,8.9198 27.9482,8.7088 30.1902,9.4468 C32.4802,10.2018 33.5832,12.1348 33.1362,14.5138 C32.4992,17.9048 30.4552,20.1788 27.4552,21.6858 C25.9402,22.4478 24.3162,22.7928 22.6192,22.7898" id="Fill-11" fill="#FFFFFF"></path>
            <path d="M98.1361,23.0591 C96.9361,23.0401 95.7771,22.8661 94.7541,22.1721 C93.3321,21.2081 92.8851,19.7931 92.9811,18.1711 C93.1011,16.1331 94.0851,14.4721 95.4231,13.0061 C97.1771,11.0841 99.2891,9.7441 101.8721,9.2351 C103.1881,8.9761 104.4991,9.0171 105.7811,9.4611 C107.5881,10.0881 108.2891,11.9901 107.2211,13.5871 C106.1901,15.1281 104.6421,15.7911 102.8231,15.8401 C102.3021,15.8541 102.1241,15.5011 102.4001,15.0431 C102.6261,14.6671 102.9411,14.3401 103.1431,13.9531 C103.4121,13.4351 103.6631,12.8941 103.8231,12.3351 C103.9681,11.8291 103.6441,11.4591 103.1331,11.5541 C102.7051,11.6341 102.2261,11.7961 101.9141,12.0811 C100.3141,13.5361 99.4261,15.3551 99.4271,17.5411 C99.4281,18.6321 100.0081,19.2231 101.0891,19.3371 C102.0831,19.4411 103.0241,19.2231 103.8831,18.7161 C104.3391,18.4471 104.7621,18.1221 105.1961,17.8151 C105.4381,17.6431 105.6851,17.5471 105.9381,17.7731 C106.1781,17.9881 106.2391,18.2531 106.0981,18.5561 C105.5401,19.7511 104.6201,20.6281 103.5661,21.3681 C101.9421,22.5091 100.1221,23.0601 98.1361,23.0591" id="Fill-13" fill="#FFFFFF"></path>
            <g id="Group-17" transform="translate(33.000000, 0.000000)">
                <mask id="mask-4" fill="white">
                    <use xlink:href="#path-3"></use>
                </mask>
                <g id="Clip-16"></g>
                <path d="M4.2119,22.9465 C3.2999,22.7405 2.3629,22.6085 1.4829,22.3085 C0.3539,21.9245 0.0469,21.3145 0.4089,20.1845 C0.9249,18.5705 1.4829,16.9665 2.1159,15.3945 C3.5349,11.8655 5.0289,8.3675 6.4559,4.8415 C7.0069,3.4805 7.5109,2.0955 7.6779,0.6155 C7.7239,0.2075 8.1579,-0.0545 8.7549,0.0095 C10.2799,0.1755 11.4629,0.9245 12.2879,2.2165 C12.5569,2.6375 12.4829,3.1085 12.3209,3.5365 C11.6019,5.4345 10.8869,7.3335 10.1189,9.2115 C8.7319,12.6065 7.2849,15.9765 5.9179,19.3785 C5.5889,20.1975 5.4439,21.0975 5.2789,21.9725 C5.1379,22.7125 5.0059,22.8655 4.2119,22.9465" id="Fill-15" fill="#FFFFFF" mask="url(#mask-4)"></path>
            </g>
            <path d="M85.8003,12.8068 C85.7263,12.7848 85.6983,12.7708 85.6683,12.7678 C84.5853,12.6688 84.4743,12.5008 84.8763,11.4968 C85.0233,11.1318 85.2003,10.7788 85.3863,10.4318 C85.6963,9.8538 86.1713,9.5308 86.8473,9.5068 C86.9853,9.5018 87.2033,9.4128 87.2413,9.3098 C87.8363,7.7068 88.4063,6.0948 88.9813,4.4848 C88.9973,4.4428 89.0013,4.3958 89.0083,4.3508 C89.1183,3.5578 89.4553,3.2728 90.2483,3.3688 C91.5843,3.5298 92.6373,4.2028 93.4543,5.2508 C93.8023,5.6988 93.8913,6.2068 93.6743,6.7518 C93.3603,7.5398 93.0523,8.3298 92.7443,9.1198 C92.7063,9.2158 92.6823,9.3158 92.6243,9.5018 C93.1993,9.4708 93.7213,9.4448 94.2423,9.4128 C94.4093,9.4028 94.5743,9.3758 94.7403,9.3588 C95.1153,9.3188 95.2553,9.4898 95.2453,9.8638 C95.2103,11.1228 94.4363,12.1568 93.1533,12.5338 C92.6353,12.6858 92.0803,12.7108 91.5483,12.8208 C91.3983,12.8528 91.1953,12.9508 91.1403,13.0738 C89.9873,15.6288 88.8423,18.1878 88.0923,20.8988 C87.9843,21.2898 87.9503,21.7028 87.8953,22.1068 C87.8433,22.4898 87.6943,22.8078 87.2673,22.8148 C85.9843,22.8368 84.7133,22.7458 83.5843,22.0458 C82.9773,21.6698 82.7513,21.1998 82.9793,20.5368 C83.5153,18.9778 84.1203,17.4438 84.6983,15.8998 C85.0493,14.9638 85.4013,14.0298 85.7483,13.0938 C85.7793,13.0118 85.7813,12.9178 85.8003,12.8068" id="Fill-18" fill="#FFFFFF"></path>
        </g>
    </g>
</svg>